<svg width="1200" height="720" viewBox="0 0 1200 720" fill="none" xmlns="http://www.w3.org/2000/svg">
  <defs>
    <linearGradient id="bg" x1="0" y1="0" x2="1200" y2="720" gradientUnits="userSpaceOnUse">
      <stop stop-color="#111827"/>
      <stop offset="1" stop-color="#1E2B52"/>
    </linearGradient>
    <linearGradient id="accent" x1="180" y1="120" x2="1000" y2="620" gradientUnits="userSpaceOnUse">
      <stop stop-color="#7C8CFF"/>
      <stop offset="1" stop-color="#6EE7F9"/>
    </linearGradient>
  </defs>
  <rect width="1200" height="720" rx="40" fill="url(#bg)"/>
  <rect x="80" y="80" width="1040" height="560" rx="28" fill="#0F172A" fill-opacity="0.6" stroke="#7C8CFF" stroke-opacity="0.18"/>
  <text x="120" y="170" fill="#E5E7EB" font-family="Inter, Arial, sans-serif" font-size="44" font-weight="700">SuperStoreCharts</text>
  <text x="120" y="220" fill="#94A3B8" font-family="Inter, Arial, sans-serif" font-size="24">Data analysis and visualization</text>
  <g opacity="0.9">
    <rect x="140" y="300" width="90" height="240" rx="14" fill="#4F46E5"/>
    <rect x="270" y="370" width="90" height="170" rx="14" fill="#6366F1"/>
    <rect x="400" y="250" width="90" height="290" rx="14" fill="#38BDF8"/>
    <rect x="530" y="330" width="90" height="210" rx="14" fill="#22C55E"/>
    <rect x="660" y="280" width="90" height="260" rx="14" fill="#F59E0B"/>
    <rect x="790" y="390" width="90" height="150" rx="14" fill="#A855F7"/>
    <path d="M140 560H930" stroke="#334155" stroke-width="4"/>
    <path d="M140 560V280" stroke="#334155" stroke-width="4"/>
    <path d="M140 280C240 320 320 330 445 285C565 242 625 265 705 318C785 372 860 360 930 310" stroke="url(#accent)" stroke-width="6" stroke-linecap="round" stroke-linejoin="round"/>
  </g>
  <circle cx="980" cy="180" r="72" fill="url(#accent)" fill-opacity="0.16"/>
  <circle cx="980" cy="180" r="34" fill="url(#accent)" fill-opacity="0.36"/>
</svg>